<?xml version="1.0" standalone="no"?>
<!DOCTYPE svg PUBLIC "-//W3C//DTD SVG 20010904//EN"
 "http://www.w3.org/TR/2001/REC-SVG-20010904/DTD/svg10.dtd">
<svg version="1.0" xmlns="http://www.w3.org/2000/svg"
 width="228.000000pt" height="155.000000pt" viewBox="0 0 258.000000 195.000000"
 preserveAspectRatio="xMidYMid meet">

<g transform="translate(0.000000,195.000000) scale(0.100000,-0.100000)"
fill="#FF4500" stroke="none">
<path d="M1143 1798 c-42 -8 -53 -13 -53 -29 0 -13 -7 -19 -24 -19 -13 0 -26
5 -28 12 -3 8 -42 -6 -113 -41 -95 -46 -107 -55 -92 -66 24 -17 21 -25 -9 -25
-14 0 -23 4 -19 10 12 20 -6 9 -44 -26 -24 -21 -38 -41 -34 -50 4 -12 -6 -18
-28 -16 -3 1 -19 -12 -35 -29 -21 -22 -25 -32 -16 -41 15 -15 -13 -49 -34 -41
-10 4 -12 0 -7 -13 4 -11 3 -15 -4 -11 -7 4 -21 -9 -34 -29 -18 -30 -19 -38
-8 -45 10 -6 15 -3 17 9 2 9 8 21 13 26 5 6 7 1 4 -11 -4 -21 -3 -21 48 -6 70
20 82 31 62 53 -21 23 -19 28 10 28 15 0 22 -5 18 -12 -3 -6 6 0 21 14 26 23
26 25 9 39 -17 13 -17 13 0 7 21 -7 87 38 87 60 0 8 4 14 8 14 5 0 17 7 28 15
10 8 15 15 9 14 -23 -3 -36 2 -30 11 6 10 23 8 63 -8 7 -2 12 1 10 9 -2 8 11
15 36 20 21 3 46 15 55 27 9 11 27 23 41 27 24 7 24 7 5 -8 -18 -14 -14 -14
35 -1 30 8 79 17 108 21 28 3 52 10 52 14 0 5 5 9 11 9 5 0 7 -4 4 -10 -4 -6
8 -10 29 -10 23 0 36 5 36 13 0 22 -11 27 -34 16 -17 -8 -16 -6 4 10 29 24 52
27 44 7 -5 -12 3 -14 38 -11 29 3 38 1 28 -5 -8 -5 -26 -10 -40 -11 -21 -1
-22 -2 -5 -6 11 -3 22 -8 25 -12 3 -3 40 -16 82 -29 l78 -22 75 22 c41 12 75
25 75 29 0 8 -28 19 -44 18 -5 0 -12 4 -15 9 -29 45 -322 113 -343 79 -6 -9
-10 -9 -20 1 -14 14 -79 14 -155 0z m417 -50 c0 -11 -38 -10 -44 1 -3 5 5 8
19 7 14 0 25 -4 25 -8z m-327 -5 c-7 -2 -21 -2 -30 0 -10 3 -4 5 12 5 17 0 24
-2 18 -5z m-168 -13 c3 -5 13 -6 23 -3 13 5 14 3 6 -7 -13 -13 -54 -5 -54 11
0 12 17 12 25 -1z m-83 -7 c-13 -3 -26 -11 -29 -19 -3 -8 -9 -14 -14 -14 -6 0
-5 9 1 20 7 13 20 20 38 19 24 -2 25 -2 4 -6z m618 -13 c0 -5 -5 -10 -11 -10
-5 0 -7 5 -4 10 3 6 8 10 11 10 2 0 4 -4 4 -10z m-100 -14 c0 -9 -7 -12 -20
-9 -31 8 -34 23 -6 23 16 0 26 -6 26 -14z m-490 -13 c0 -5 -12 -13 -26 -20
-21 -10 -23 -9 -15 1 6 7 8 16 4 19 -3 4 3 7 15 7 12 0 22 -3 22 -7z m-273
-150 c-9 -9 -20 -13 -24 -9 -4 4 -1 11 7 16 25 16 35 11 17 -7z m27 -18 c-7
-16 -24 -21 -24 -6 0 8 7 13 27 20 1 1 0 -6 -3 -14z"/>
<path d="M1905 1682 c-11 -4 -22 -16 -23 -27 -5 -29 -12 -32 -12 -6 0 16 -5
21 -14 18 -7 -3 -47 -15 -87 -27 -86 -26 -102 -36 -94 -61 8 -23 -17 -26 -34
-5 -9 11 -9 15 1 19 9 4 7 6 -4 6 -9 1 -19 -3 -22 -8 -3 -5 -26 -12 -51 -15
-25 -4 -45 -11 -45 -17 0 -5 -11 -9 -25 -9 -16 0 -25 -6 -25 -15 0 -9 9 -15
25 -15 24 0 34 -13 18 -23 -5 -2 -1 -2 7 0 8 3 27 7 42 10 16 3 25 10 22 18
-6 16 12 29 27 19 8 -4 7 -9 -2 -15 -9 -6 -10 -9 -2 -9 6 0 18 7 26 15 8 8 17
12 20 9 8 -8 88 16 83 24 -3 5 11 8 30 8 20 0 39 6 44 13 4 7 14 11 21 9 8 -3
32 1 54 9 44 15 65 11 65 -12 0 -9 7 -32 16 -53 9 -20 18 -47 19 -58 7 -49 67
-224 76 -224 6 0 8 -7 5 -16 -7 -18 42 -184 55 -184 5 0 6 -7 3 -15 -4 -8 -1
-15 6 -15 6 0 9 -4 6 -9 -4 -5 0 -12 6 -15 10 -5 10 -7 1 -12 -17 -8 5 -64 25
-64 15 0 15 -2 2 -10 -9 -6 -11 -13 -5 -17 6 -5 11 -19 11 -33 1 -14 5 -38 8
-55 l7 -30 -216 -65 c-149 -45 -209 -67 -193 -71 22 -5 22 -5 3 -11 -11 -3
-29 -9 -40 -13 -16 -5 -17 -5 -5 4 18 12 7 26 -12 15 -7 -5 -19 -9 -27 -11 -8
-1 -17 -7 -21 -13 -3 -6 -15 -10 -26 -9 -10 1 -28 1 -39 0 -17 -1 -18 -3 -5
-11 13 -9 13 -11 0 -20 -22 -14 -33 -12 -26 5 3 8 0 15 -7 14 -19 -1 -84 -27
-70 -28 7 -1 10 -8 6 -18 -5 -12 -3 -14 8 -9 8 4 5 0 -5 -8 -37 -30 -8 -27
113 10 87 27 121 42 121 53 0 13 2 13 9 2 6 -8 16 -11 31 -6 17 5 19 9 9 16
-7 4 -10 11 -6 15 3 4 13 1 21 -5 12 -10 27 -9 73 4 69 20 86 32 80 57 -3 10
-1 18 4 18 5 0 9 -4 9 -10 0 -5 6 -10 14 -10 8 0 16 -4 18 -9 5 -14 211 57
231 80 25 31 21 42 -15 37 -28 -4 -29 -4 -13 8 10 7 23 15 29 17 13 4 -10 85
-32 110 -8 9 -10 17 -4 17 13 0 3 40 -12 46 -6 2 -11 17 -10 32 1 29 -44 175
-57 180 -4 2 -5 12 -2 22 4 16 0 20 -18 21 -18 1 -19 3 -6 6 11 3 16 11 13 21
-3 9 -10 36 -17 59 -7 23 -15 40 -20 38 -4 -3 -5 4 -2 16 7 25 -15 43 -34 27
-8 -6 -17 -8 -21 -4 -4 4 1 12 11 17 21 12 22 23 1 43 -8 9 -12 16 -7 16 5 0
15 -6 22 -12 10 -11 11 -9 5 7 -12 33 -15 35 -33 26 -13 -7 -17 -5 -18 9 -1
12 6 20 20 22 20 3 20 4 3 21 -10 9 -22 15 -27 12 -5 -4 -6 1 -3 9 3 9 10 16
15 16 9 0 -15 68 -29 82 -12 11 -56 17 -77 10z m-120 -92 c-27 -12 -35 -12
-35 0 0 6 12 10 28 9 24 0 25 -1 7 -9z m355 -450 c0 -5 -10 -10 -22 -10 -19 0
-20 2 -8 10 19 13 30 13 30 0z m-300 -500 c0 -5 -4 -10 -9 -10 -6 0 -13 5 -16
10 -3 6 1 10 9 10 9 0 16 -4 16 -10z m-170 -54 c0 -11 -19 -15 -25 -6 -3 5 1
10 9 10 9 0 16 -2 16 -4z"/>
<path d="M1417 1517 c-15 -18 -17 -19 -13 -3 5 14 2 17 -9 12 -9 -3 -41 -13
-73 -22 -31 -9 -61 -20 -67 -24 -5 -4 -28 -11 -50 -14 -22 -4 -46 -11 -54 -15
-16 -10 -7 -47 13 -54 16 -6 103 18 122 34 7 6 18 8 24 4 5 -3 10 1 10 9 0 9
5 16 11 16 5 0 7 -4 4 -10 -9 -14 4 -13 73 11 34 11 60 25 56 30 -3 5 0 9 5 9
7 0 7 7 -1 20 -16 25 -28 25 -51 -3z m-146 -64 c-11 -5 -11 -7 0 -14 10 -6 4
-9 -18 -9 -18 0 -33 2 -33 5 0 7 41 24 55 24 6 -1 4 -3 -4 -6z"/>
<path d="M1067 1428 c-21 -6 -41 -17 -44 -24 -3 -8 -9 -14 -15 -14 -5 0 -7 4
-4 9 4 5 -4 7 -16 3 -12 -3 -17 -7 -10 -10 7 -2 9 -8 6 -13 -4 -6 -11 -6 -19
1 -10 8 -42 2 -129 -25 -64 -20 -114 -40 -111 -46 3 -5 -1 -6 -10 -3 -8 4 -44
-2 -79 -12 -54 -15 -62 -21 -58 -37 4 -14 1 -18 -9 -15 -8 3 -13 11 -11 18 2
7 -3 10 -11 7 -8 -3 -48 -15 -88 -27 -89 -27 -125 -44 -132 -65 -6 -15 13 -17
23 -3 3 4 12 3 20 -2 11 -7 11 -10 2 -10 -10 0 -10 -5 -1 -22 11 -21 13 -21
19 -4 6 19 35 30 146 61 58 16 62 19 60 46 -2 27 -1 28 16 12 10 -9 18 -12 18
-7 0 5 4 3 9 -5 8 -12 15 -12 53 1 23 9 87 28 140 44 69 20 94 31 88 39 -7 9
-1 11 23 9 48 -3 75 5 80 27 3 12 13 19 29 18 12 0 17 -3 11 -6 -7 -2 -13 -8
-13 -13 0 -12 83 15 88 28 2 7 -1 12 -7 12 -6 0 -11 -4 -11 -10 0 -16 -20 -12
-27 6 -7 20 18 38 30 21 6 -9 7 -8 5 2 -6 19 -16 21 -61 9z"/>
<path d="M1427 1419 c-17 -10 -16 -12 8 -35 14 -13 23 -29 20 -34 -4 -6 0 -21
8 -33 9 -14 11 -30 7 -43 -5 -11 -4 -27 0 -35 7 -11 14 -9 32 11 13 14 22 28
20 33 -1 4 5 10 13 13 18 7 20 44 3 44 -6 0 -9 3 -5 6 13 13 -24 62 -54 73
-18 6 -32 11 -33 11 -1 0 -9 -5 -19 -11z m38 -19 c3 -5 2 -10 -4 -10 -5 0 -13
5 -16 10 -3 6 -2 10 4 10 5 0 13 -4 16 -10z"/>
<path d="M1340 1393 c-14 -3 -31 -10 -38 -16 -11 -8 -10 -13 5 -21 10 -6 23
-11 28 -11 6 0 10 -18 11 -40 1 -77 26 -137 59 -141 6 0 16 -2 24 -2 11 -2 11
-5 1 -17 -10 -12 -16 -13 -28 -3 -13 11 -14 10 -7 -11 5 -16 3 -26 -6 -32 -7
-4 -10 -11 -6 -16 4 -4 17 -2 27 5 11 7 30 12 43 12 13 0 26 2 29 5 6 7 -14
80 -25 91 -4 4 -7 16 -7 26 0 11 -7 18 -20 18 -12 0 -20 7 -20 16 0 13 3 14
14 5 12 -10 13 -8 9 11 -3 13 -10 28 -15 35 -5 7 -7 16 -4 22 4 5 -1 16 -9 25
-8 8 -14 21 -13 27 3 15 -16 19 -52 12z"/>
<path d="M1165 1331 c-3 -5 0 -13 6 -17 6 -3 22 -31 35 -60 18 -42 27 -52 41
-48 14 4 13 1 -4 -13 -26 -21 -17 -47 13 -38 17 6 18 5 2 -7 -12 -10 -14 -18
-6 -31 5 -10 6 -32 2 -49 -6 -31 -6 -32 15 -18 32 22 60 71 43 77 -10 4 -10 8
-2 19 7 8 9 26 5 44 -5 25 -11 30 -26 25 -24 -8 -25 4 -2 20 16 12 15 16 -11
49 -35 47 -95 72 -111 47z m115 -151 c0 -5 -5 -10 -11 -10 -5 0 -7 5 -4 10 3
6 8 10 11 10 2 0 4 -4 4 -10z"/>
<path d="M1107 1306 c-27 -21 -32 -42 -28 -98 1 -24 17 -23 24 2 7 26 27 26
27 1 0 -11 6 -21 13 -24 6 -2 -5 -7 -26 -11 -47 -9 -40 -25 10 -23 41 2 41 3
27 74 -6 32 -34 68 -34 44 0 -6 -8 -11 -17 -11 -15 1 -16 2 -3 9 8 5 19 9 24
9 11 0 26 23 26 40 0 17 -11 15 -43 -12z"/>
<path d="M967 1274 c-9 -9 11 -34 27 -34 7 0 12 -10 13 -21 1 -12 4 -24 7 -27
13 -12 16 7 8 44 -6 28 -13 40 -28 42 -11 2 -23 0 -27 -4z"/>
<path d="M886 1245 c-10 -7 -15 -18 -12 -24 4 -6 9 -26 11 -45 6 -48 35 -117
46 -110 5 3 9 0 9 -5 0 -6 -5 -11 -10 -11 -6 0 -5 -13 3 -33 9 -21 11 -41 6
-55 -7 -19 -6 -22 9 -18 9 3 29 8 45 12 15 3 27 10 27 16 0 5 5 6 10 3 6 -3
10 -1 10 5 0 7 -9 14 -20 17 -11 3 -20 10 -20 15 0 5 5 6 10 3 13 -8 12 -5 -1
34 -8 21 -17 31 -32 31 -20 1 -20 2 -5 13 17 14 16 22 -12 120 -15 51 -37 60
-74 32z"/>
<path d="M811 1229 c-17 -7 -21 -14 -16 -27 4 -9 10 -25 12 -34 3 -10 12 -18
20 -18 9 0 13 -6 9 -15 -3 -8 -2 -15 3 -15 5 0 8 20 7 45 0 25 -5 45 -10 45
-4 0 -6 7 -2 15 3 8 4 15 3 14 -1 0 -13 -5 -26 -10z"/>
<path d="M337 1142 c-11 -2 -16 -10 -13 -17 3 -8 21 -66 41 -130 20 -63 38
-115 41 -115 3 0 3 10 -1 23 -5 19 -4 20 5 5 6 -10 18 -18 25 -18 8 0 15 -4
15 -10 0 -5 -9 -10 -20 -10 -26 0 -26 -7 11 -122 28 -89 33 -96 50 -85 10 6
22 7 26 3 4 -5 4 -10 -2 -13 -38 -14 -38 -18 -5 -134 18 -63 38 -118 44 -124
6 -5 10 -20 8 -33 -2 -12 0 -22 5 -22 5 0 10 -12 11 -27 3 -34 29 -63 57 -63
23 0 207 54 228 67 6 4 23 8 38 10 15 1 39 8 55 14 33 14 145 47 186 56 15 3
25 10 22 15 -3 5 2 8 12 7 26 -4 155 34 161 47 2 6 18 8 35 6 24 -4 29 -2 23
8 -6 10 -4 12 8 7 15 -6 38 3 75 27 10 6 9 11 -5 22 -12 9 -13 13 -5 14 7 0
11 4 7 9 -5 9 -63 -6 -174 -46 -32 -11 -40 -18 -30 -25 10 -6 1 -8 -26 -6 -49
3 -107 -10 -99 -23 3 -5 -1 -9 -10 -9 -8 0 -16 -6 -19 -12 -3 -10 -7 -10 -19
0 -11 9 -22 9 -39 3 -17 -7 -19 -10 -7 -10 17 -1 17 -2 1 -20 -18 -22 -38 -18
-29 6 4 10 1 13 -12 9 -141 -41 -221 -69 -216 -77 3 -6 -4 -7 -18 -4 -12 3
-50 -3 -82 -15 -68 -23 -69 -23 -61 -11 3 5 1 12 -4 16 -6 3 -8 12 -5 19 6 16
-24 49 -37 41 -5 -4 -9 1 -9 9 0 8 5 18 12 22 6 4 8 3 4 -4 -3 -6 -2 -13 4
-17 13 -8 13 0 -1 48 -7 28 -15 37 -31 37 -20 0 -20 1 -4 19 17 19 17 20 -11
24 -27 4 -27 4 -5 12 14 5 21 13 18 22 -3 7 -15 45 -27 84 -15 50 -25 69 -35
65 -7 -3 -16 -1 -19 5 -4 5 1 12 10 15 11 4 14 13 9 28 -9 30 -11 31 -31 15
-16 -13 -17 -12 -5 3 10 13 10 17 0 21 -8 3 -6 6 5 6 19 1 18 12 -6 71 -6 14
-9 29 -9 33 1 4 -5 10 -14 14 -10 3 -12 8 -5 12 12 8 -7 81 -21 81 -5 0 -6 5
-3 10 3 6 2 10 -4 10 -5 0 -9 12 -8 28 2 23 -2 27 -26 30 -21 3 -26 7 -18 16
13 16 0 33 -22 28z m994 -645 c-6 -8 -8 -17 -4 -20 10 -10 -10 -8 -27 3 -13 8
-12 10 3 10 9 0 17 5 17 10 0 6 5 10 11 10 8 0 9 -4 0 -13z m-754 -53 c-3 -3
-12 -4 -19 -1 -8 3 -5 6 6 6 11 1 17 -2 13 -5z m387 -71 c5 -11 1 -13 -17 -8
-33 11 -39 20 -12 21 13 1 26 -5 29 -13z m-209 -73 c-27 -12 -35 -12 -35 0 0
6 12 10 28 9 24 0 25 -1 7 -9z m-75 -20 c0 -5 -7 -10 -15 -10 -8 0 -15 5 -15
10 0 6 7 10 15 10 8 0 15 -4 15 -10z"/>
<path d="M1108 1128 c-21 -5 -7 -13 16 -9 5 1 4 -4 -1 -11 -8 -10 -8 -18 2
-31 8 -12 15 -14 20 -8 3 6 1 11 -4 11 -6 0 -11 5 -11 10 0 6 7 10 16 10 12 0
15 -6 10 -25 -5 -18 -1 -27 13 -35 46 -24 85 0 42 27 -10 6 -21 25 -24 41 -6
31 -24 36 -79 20z"/>
<path d="M1950 1122 c0 -13 39 -46 46 -39 12 12 -8 47 -27 47 -10 0 -19 -4
-19 -8z"/>
<path d="M1872 1096 c-14 -7 -20 -16 -16 -26 4 -8 10 -34 15 -57 4 -23 15 -58
23 -78 9 -20 18 -58 22 -86 7 -54 12 -56 77 -38 36 10 53 39 22 39 -8 0 -15 8
-15 18 0 10 -4 22 -9 27 -4 6 -14 33 -21 60 -40 160 -45 167 -98 141z m48 -36
c5 8 9 7 13 -4 5 -11 1 -16 -13 -16 -13 0 -20 6 -19 18 0 12 2 13 6 3 4 -10 7
-10 13 -1z m55 -168 c-8 -8 -25 10 -19 20 4 6 9 5 15 -3 4 -7 6 -15 4 -17z"/>
<path d="M1793 1079 c-21 -8 -21 -8 -3 -56 10 -26 23 -49 29 -51 18 -6 13 23
-9 51 -24 30 -25 37 -4 37 9 0 12 -5 8 -12 -5 -10 -4 -10 6 -1 19 18 0 42 -27
32z"/>
<path d="M1997 1050 c3 -11 9 -20 14 -20 11 0 11 3 3 24 -9 23 -23 20 -17 -4z"/>
<path d="M1683 1043 c-23 -8 -14 -33 11 -33 14 0 31 -9 40 -21 21 -31 36 -16
24 25 -8 26 -16 33 -37 33 -14 1 -32 -1 -38 -4z"/>
<path d="M1570 1001 c-17 -14 -17 -16 0 -30 9 -9 27 -50 39 -91 12 -41 27 -85
33 -97 6 -12 8 -33 6 -47 -5 -25 -4 -26 36 -20 57 9 62 16 43 66 -10 24 -17
51 -17 61 0 9 -5 17 -11 17 -8 0 -8 5 1 15 17 21 25 19 38 -10 14 -31 31 -33
27 -2 -4 31 -16 57 -26 57 -4 0 -6 6 -3 14 3 8 0 17 -7 22 -9 5 -11 -1 -6 -24
4 -22 2 -32 -9 -36 -24 -9 -30 -7 -31 12 0 9 -5 37 -10 62 -8 44 -9 45 -47 45
-21 0 -46 -6 -56 -14z m60 -21 c0 -5 -5 -10 -11 -10 -5 0 -7 5 -4 10 3 6 8 10
11 10 2 0 4 -4 4 -10z m40 -115 c-7 -8 -16 -15 -20 -15 -4 0 -10 7 -14 15 -4
11 2 15 21 15 21 0 24 -2 13 -15z m16 -54 c-9 -8 -18 -12 -22 -9 -9 10 3 25
21 25 14 0 14 -2 1 -16z"/>
<path d="M1410 950 c-15 -9 -13 -11 12 -14 6 0 12 -9 14 -19 5 -37 13 -45 46
-45 28 0 34 4 36 24 1 16 -3 24 -14 24 -9 0 -12 5 -8 11 15 24 -54 39 -86 19z"/>
<path d="M1356 935 c-11 -8 -30 -15 -43 -15 -28 0 -31 -26 -3 -35 11 -3 19 -9
18 -13 -5 -15 36 -152 45 -152 5 0 7 -18 5 -40 -2 -22 0 -40 5 -40 4 0 5 -4 2
-10 -4 -6 4 -6 22 1 15 5 31 16 35 22 6 9 8 9 8 -1 0 -10 5 -10 20 -2 19 10
19 11 -5 47 -14 19 -25 45 -25 56 0 15 -5 18 -25 15 -13 -3 -22 -1 -19 3 3 5
12 9 20 9 19 0 18 31 -2 56 -8 10 -12 13 -8 5 5 -10 3 -12 -5 -7 -9 6 -9 11
-1 21 12 14 3 45 -18 61 -8 6 -12 16 -8 22 9 15 5 15 -18 -3z"/>
<path d="M1184 881 c-9 -9 -3 -17 24 -29 16 -7 35 -23 42 -37 24 -45 38 -30
22 24 -15 47 -17 49 -50 48 -18 -1 -35 -4 -38 -6z"/>
<path d="M1138 869 c-25 -14 -37 -40 -44 -98 -5 -39 -2 -57 10 -76 9 -14 15
-29 12 -34 -7 -11 53 -81 69 -81 36 0 35 74 -3 146 -17 33 -31 108 -22 119 14
17 -3 35 -22 24z m-3 -38 c-3 -6 -11 -11 -17 -11 -6 0 -6 6 2 15 14 17 26 13
15 -4z m-7 -63 c-2 -6 -10 -14 -16 -16 -7 -2 -10 2 -6 12 7 18 28 22 22 4z
m52 -62 c0 -3 -4 -8 -10 -11 -5 -3 -10 -1 -10 4 0 6 5 11 10 11 6 0 10 -2 10
-4z m-10 -54 c0 -15 -2 -15 -10 -2 -7 11 -10 11 -10 2 0 -7 -4 -10 -10 -7 -16
10 -11 21 10 22 13 1 20 -4 20 -15z"/>
<path d="M1454 827 c1 -19 9 -41 19 -51 9 -10 17 -23 17 -29 0 -7 4 -6 11 3 8
11 9 7 4 -17 -5 -25 -2 -34 17 -47 13 -10 26 -12 31 -7 5 5 15 7 22 5 7 -3 16
0 21 7 5 8 3 10 -6 4 -10 -6 -12 -3 -8 13 4 15 2 19 -9 15 -11 -4 -13 1 -9 23
6 32 -17 64 -46 64 -19 0 -24 15 -8 25 21 13 9 25 -24 25 -31 0 -33 -2 -32
-33z"/>
<path d="M1797 843 c-4 -3 -7 -24 -7 -45 0 -22 -4 -37 -9 -33 -10 5 -27 -13
-19 -20 2 -2 19 1 39 8 34 12 35 13 24 49 -11 41 -18 51 -28 41z"/>
<path d="M995 821 c-3 -5 3 -12 12 -14 15 -4 15 -5 -2 -6 -12 0 -26 4 -32 10
-8 8 -13 8 -17 0 -11 -18 3 -30 28 -25 18 3 25 -1 29 -18 7 -24 19 -18 23 9 5
34 -26 67 -41 44z"/>
<path d="M905 793 c-11 -2 -30 -6 -42 -9 -25 -5 -31 -28 -10 -41 19 -12 85
-220 75 -237 -11 -19 9 -31 26 -17 7 6 20 9 27 6 8 -3 21 -1 29 5 13 8 13 14
0 52 -11 30 -20 42 -32 40 -25 -4 -31 16 -8 28 26 14 26 30 0 23 -16 -4 -19
-2 -14 11 3 9 11 16 16 16 7 0 7 4 0 13 -5 6 -13 28 -17 47 -10 54 -16 70 -23
69 -4 -1 -16 -3 -27 -6z"/>
<path d="M790 752 c0 -10 -4 -22 -9 -27 -6 -6 2 -21 20 -38 34 -33 34 -32 13
34 -17 52 -24 61 -24 31z"/>
<path d="M682 717 c-12 -13 -23 -34 -24 -47 -2 -20 1 -24 17 -22 19 2 19 2 3
-11 -22 -18 -22 -26 1 -56 12 -16 21 -20 25 -12 4 6 12 11 17 11 6 0 7 -5 3
-11 -9 -15 14 -29 47 -29 14 0 34 -9 44 -20 16 -18 17 -23 5 -45 -17 -32 -7
-42 24 -22 38 26 41 117 4 157 -20 22 -45 22 -40 1 1 -7 -2 -10 -7 -6 -6 3 -8
12 -5 20 7 17 -34 30 -65 20 -18 -5 -19 -2 -17 40 3 55 -4 62 -32 32z m103
-137 c-3 -5 -11 -10 -16 -10 -6 0 -7 5 -4 10 3 6 11 10 16 10 6 0 7 -4 4 -10z
m55 -9 c0 -5 -7 -11 -15 -15 -15 -5 -20 5 -8 17 9 10 23 9 23 -2z m14 -25 c-3
-9 -10 -13 -16 -10 -5 3 -4 12 3 20 15 18 22 13 13 -10z"/>
<path d="M1002 707 c1 -21 5 -40 10 -43 5 -3 13 -17 19 -31 5 -13 13 -22 18
-19 10 7 -9 66 -21 66 -4 0 -8 8 -8 18 0 9 -5 24 -10 32 -7 11 -9 5 -8 -23z"/>
<path d="M1307 683 c-4 -3 -7 -13 -7 -21 0 -7 -9 -25 -20 -39 -11 -14 -17 -30
-13 -36 8 -13 41 31 49 66 6 29 2 42 -9 30z"/>
<path d="M1077 614 c-4 -4 -7 -17 -7 -28 0 -12 -7 -32 -16 -45 -17 -23 -17
-23 17 -16 48 10 49 12 37 48 -13 38 -22 50 -31 41z"/>
<path d="M1996 608 c-52 -11 -53 -14 -25 -37 19 -16 20 -20 8 -21 -9 0 -29 6
-44 14 -35 18 -46 14 -75 -32 -13 -21 -45 -55 -71 -76 -26 -21 -58 -47 -70
-59 -13 -12 -27 -22 -31 -22 -4 0 -12 -5 -17 -10 -8 -8 -4 -11 12 -12 23 -2
62 -41 52 -52 -4 -3 -11 2 -16 12 -7 12 -22 17 -50 17 -23 0 -38 4 -34 10 5 7
-100 -35 -114 -46 -2 -2 2 -11 10 -21 8 -9 9 -14 2 -10 -7 4 -16 0 -22 -10 -5
-10 -12 -15 -16 -12 -3 4 1 13 9 22 23 23 -2 28 -60 13 -43 -11 -46 -14 -26
-20 34 -11 26 -50 -10 -54 -16 -2 -28 1 -28 7 0 6 3 10 8 10 21 -4 31 2 26 15
-3 9 -15 13 -30 10 -13 -2 -24 0 -24 4 0 5 -42 12 -92 15 -51 3 -120 14 -153
23 -73 22 -127 21 -161 0 -13 -9 -29 -14 -34 -11 -6 3 -18 2 -27 -4 -15 -8
-10 -14 36 -35 30 -14 58 -23 63 -20 4 3 8 1 8 -4 0 -13 66 -31 90 -25 11 3
20 0 20 -6 0 -5 7 -8 15 -5 10 4 13 14 9 30 -5 17 -2 24 9 24 10 0 13 -7 10
-19 -4 -16 0 -18 23 -13 24 4 26 2 22 -16 -5 -18 -1 -22 26 -27 51 -10 155 -1
161 13 2 6 9 12 15 12 6 0 8 -5 5 -10 -3 -6 4 -10 17 -9 27 1 109 26 91 28 -7
1 -13 6 -13 11 0 13 32 9 42 -4 10 -15 38 13 32 32 -5 14 -3 14 9 -1 14 -17
18 -18 44 -4 15 8 40 20 56 26 15 6 27 18 27 26 0 10 7 15 18 13 31 -5 167
103 161 128 -5 20 14 44 35 44 24 0 81 73 79 102 -1 10 4 18 12 18 11 0 31 29
23 35 -2 1 -21 -2 -42 -7z m-36 -78 c0 -5 -2 -10 -4 -10 -3 0 -8 5 -11 10 -3
6 -1 10 4 10 6 0 11 -4 11 -10z m-120 -140 c0 -5 -7 -10 -15 -10 -8 0 -15 5
-15 10 0 6 7 10 15 10 8 0 15 -4 15 -10z m-93 -6 c-3 -3 -12 -4 -19 -1 -8 3
-5 6 6 6 11 1 17 -2 13 -5z m-137 -74 c0 -5 -8 -10 -17 -10 -15 0 -16 2 -3 10
19 12 20 12 20 0z m50 -30 c0 -5 -5 -10 -11 -10 -5 0 -7 5 -4 10 3 6 8 10 11
10 2 0 4 -4 4 -10z m-86 -15 c3 -8 1 -15 -3 -15 -5 0 -11 7 -15 15 -3 8 -1 15
3 15 5 0 11 -7 15 -15z m-334 -26 c0 -14 -20 -11 -21 4 0 10 -2 10 -6 0 -5
-15 -33 -18 -33 -4 0 11 30 19 48 13 6 -2 12 -8 12 -13z m-150 7 c0 -3 -4 -8
-10 -11 -5 -3 -10 -1 -10 4 0 6 5 11 10 11 6 0 10 -2 10 -4z m195 -26 c3 -6
-1 -7 -9 -4 -18 7 -21 14 -7 14 6 0 13 -4 16 -10z"/>
<path d="M695 503 c4 -10 10 -28 12 -40 6 -26 36 -35 60 -17 15 11 15 13 2 14
-8 0 -25 14 -37 30 -25 33 -49 41 -37 13z"/>
</g>
</svg>
